<?xml version="1.0" encoding="UTF-8"?>
<svg width="117px" height="22px" viewBox="0 0 117 22" version="1.1" xmlns="http://www.w3.org/2000/svg" xmlns:xlink="http://www.w3.org/1999/xlink">
    <title>Combined Shape Copy 7</title>
    <g id="Home" stroke="none" stroke-width="1" fill="none" fill-rule="evenodd">
        <g transform="translate(-662.000000, -1433.000000)" fill="#FFFFFF" fill-rule="nonzero" id="1-copy-5">
            <g>
                <path d="M713.540832,1438.5 C715.03932,1438.5 716.365042,1438.83349 717.513651,1439.49957 C718.663101,1440.16565 719.550494,1441.11962 720.173864,1442.36237 C720.798146,1443.60333 721.109375,1445.0553 721.109375,1446.71558 C721.109375,1449.32178 720.439499,1451.35489 719.096241,1452.81222 C717.753894,1454.27044 715.874876,1455 713.459325,1455 C711.142818,1455 709.298871,1454.25435 707.930221,1452.76305 C706.559816,1451.27174 705.875,1449.25652 705.875,1446.71558 C705.875,1444.11742 706.545788,1442.09862 707.889046,1440.65917 C709.232234,1439.21972 711.115602,1438.5 713.540832,1438.5 Z M738.912571,1433.61111 L738.912571,1438.66038 L742.40998,1438.66038 L742.40998,1442.8115 L738.912571,1442.8115 L738.912571,1449.06159 C738.912571,1450.10118 739.407998,1450.62097 740.397101,1450.62097 C741.13714,1450.62097 742.018573,1450.43539 743.046875,1450.06694 L743.046875,1454.10726 C742.307785,1454.42796 741.605194,1454.65768 740.937275,1454.79371 C740.269357,1454.93154 739.48552,1455 738.588612,1455 C736.748151,1455 735.421512,1454.54327 734.606652,1453.63161 C733.795514,1452.71995 733.388559,1451.32003 733.388559,1449.43094 L733.388559,1442.8115 L731.46875,1442.8115 L731.46875,1438.66038 L733.388559,1438.66038 L733.388559,1434.55971 L738.912571,1433.61111 Z M751.099461,1433.61111 L751.099461,1438.66038 L754.598481,1438.66038 L754.598481,1442.8115 L751.099461,1442.8115 L751.099461,1449.06159 C751.099461,1450.10118 751.594921,1450.62097 752.584818,1450.62097 C753.324796,1450.62097 754.206157,1450.43539 755.234375,1450.06694 L755.234375,1454.10726 C754.496295,1454.42796 753.792812,1454.65768 753.124948,1454.79371 C752.456209,1454.93154 751.67521,1455 750.776478,1455 C748.93624,1455 747.609637,1454.54327 746.796668,1453.63161 C745.983772,1452.71995 745.57685,1451.32003 745.57685,1449.43094 L745.57685,1442.8115 L743.65625,1442.8115 L743.65625,1438.66038 L745.57685,1438.66038 L745.57685,1434.49755 L751.099461,1433.61111 Z M763.927059,1438.5 C766.207743,1438.5 767.970709,1439.12677 769.213314,1440.37854 C770.456753,1441.6294 771.078125,1443.43283 771.078125,1445.78704 L771.078125,1445.78704 L771.078125,1448.23423 L761.734228,1448.23423 C761.76987,1449.12477 762.080556,1449.82397 762.663571,1450.33093 C763.246585,1450.837 764.041922,1451.09003 765.04951,1451.09003 C765.96848,1451.09003 766.812546,1450.99794 767.581778,1450.81465 C768.114322,1450.68858 768.678193,1450.49724 769.270745,1450.24867 L769.270745,1450.24867 L770.073948,1453.84033 C769.258562,1454.27666 768.417977,1454.57887 767.549546,1454.74607 C766.675895,1454.91506 765.63343,1455 764.422152,1455 C761.899491,1455 759.940771,1454.29365 758.545921,1452.88274 C757.151907,1451.47182 756.453125,1449.46185 756.453125,1446.85551 C756.453125,1444.16422 757.099627,1442.09881 758.391866,1440.65929 C759.68494,1439.21976 761.529703,1438.5 763.927059,1438.5 Z M688.973934,1438.5 C691.255453,1438.5 693.017584,1439.12677 694.261024,1440.37854 C695.503628,1441.6294 696.125,1443.43283 696.125,1445.78704 L696.125,1445.78704 L696.125,1448.23423 L686.781103,1448.23423 C686.816745,1449.12477 687.126526,1449.82397 687.710446,1450.33093 C688.29346,1450.837 689.089632,1451.09003 690.096385,1451.09003 C691.015355,1451.09003 691.858516,1450.99794 692.629488,1450.81465 C693.161128,1450.68858 693.724999,1450.49724 694.31762,1450.24867 L694.31762,1450.24867 L695.121658,1453.84033 C694.305437,1454.27666 693.464852,1454.57887 692.596421,1454.74607 C691.72277,1454.91506 690.680305,1455 689.469027,1455 C686.946366,1455 684.987646,1454.29365 683.593632,1452.88274 C682.197877,1451.47182 681.5,1449.46185 681.5,1446.85551 C681.5,1444.16422 682.147407,1442.09881 683.439577,1440.65929 C684.731815,1439.21976 686.575673,1438.5 688.973934,1438.5 Z M775.953548,1448.88889 C777.635911,1448.88889 779,1450.25772 779,1451.94489 C779,1453.63205 777.635911,1455 775.953548,1455 C774.272103,1455 772.90625,1453.63205 772.90625,1451.94489 C772.90625,1450.25772 774.272103,1448.88889 775.953548,1448.88889 Z M669.205072,1433 C672.547097,1433 675.12722,1433.87804 676.945439,1435.63322 C678.762801,1437.3893 679.671875,1439.92407 679.671875,1443.2411 C679.671875,1446.81054 678.715481,1449.56102 676.802693,1451.49163 C674.889906,1453.42314 672.20094,1454.38889 668.734869,1454.38889 L662,1454.38889 L662,1433 L669.205072,1433 Z M704.046875,1433 L704.046875,1454.38889 L698.5625,1454.38889 L698.5625,1433 L704.046875,1433 Z M729.03125,1438.5 L729.03125,1454.38889 L723.546875,1454.38889 L723.546875,1438.5 L729.03125,1438.5 Z M713.485629,1442.59304 C712.677219,1442.59304 712.099442,1442.93904 711.748722,1443.62747 C711.398844,1444.3168 711.223484,1445.34587 711.223484,1446.71558 C711.223484,1448.0835 711.398844,1449.12688 711.748722,1449.84392 C712.099442,1450.56185 712.686829,1450.92037 713.512775,1450.92037 C714.329953,1450.92037 714.9078,1450.56185 715.244491,1449.84392 C715.581182,1449.12688 715.748616,1448.0835 715.748616,1446.71558 C715.748616,1445.35481 715.578517,1444.32842 715.237477,1443.63552 C714.895524,1442.94083 714.312417,1442.59304 713.485629,1442.59304 Z M669.26217,1437.66676 L667.625095,1437.66676 L667.625095,1449.64784 L668.877685,1449.64784 C670.587061,1449.64784 671.839651,1449.13945 672.637241,1448.1191 C673.433903,1447.10054 673.83359,1445.54226 673.83359,1443.44517 C673.83359,1441.48592 673.456243,1440.03237 672.701477,1439.08541 C671.945783,1438.13935 670.801108,1437.66676 669.26217,1437.66676 Z M764.113276,1442.24187 C763.498935,1442.24187 762.985534,1442.44573 762.569523,1442.85345 C762.155391,1443.26206 761.912578,1443.90135 761.841224,1444.77401 L761.841224,1444.77401 L766.332212,1444.77401 C766.315644,1444.00507 766.108543,1443.39081 765.71091,1442.93213 C765.315852,1442.47077 764.783307,1442.24187 764.113276,1442.24187 Z M689.160986,1442.24187 C688.54574,1442.24187 688.031504,1442.44573 687.616398,1442.85345 C687.202266,1443.26206 686.959453,1443.90135 686.888099,1444.77401 L686.888099,1444.77401 L691.379922,1444.77401 C691.361614,1444.00507 691.155418,1443.39081 690.757785,1442.93213 C690.361822,1442.47077 689.829277,1442.24187 689.160986,1442.24187 Z M729.03125,1433 L729.03125,1436.66667 L723.546875,1436.66667 L723.546875,1433 L729.03125,1433 Z" id="Combined-Shape-Copy-7"></path>
            </g>
        </g>
    </g>
</svg>