<?xml version="1.0" encoding="UTF-8"?>
<svg width="127px" height="48px" viewBox="0 0 127 48" version="1.1" xmlns="http://www.w3.org/2000/svg" xmlns:xlink="http://www.w3.org/1999/xlink">
    <title>Combined Shape Copy 4</title>
    <g id="Home" stroke="none" stroke-width="1" fill="none" fill-rule="evenodd">
        <g transform="translate(-388.000000, -1420.000000)" fill="#FFFFFF" fill-rule="nonzero" id="1-copy-5">
            <g>
                <path d="M406.911275,1431.25297 L407.209487,1431.38255 C412.970016,1433.97612 421.14913,1439.96032 424.364209,1443.74166 L424.566775,1443.98509 C428.062519,1448.29006 428.141968,1452.2463 426.905762,1456.20902 L426.817406,1456.48551 C425.824108,1459.52635 424.338524,1461.77792 422.307515,1464.07291 L421.963954,1464.45595 C420.161673,1466.44027 417.510947,1467.89311 414.420517,1467.99435 L414.075347,1468 C413.484198,1468 412.877608,1467.95004 412.258519,1467.84572 C408.87918,1467.27565 400.821657,1464.4715 395.568238,1461.30253 L395.206364,1461.08087 C389.30253,1457.40763 387.387015,1453.83057 388.164723,1449.35954 L388.212569,1449.1006 C388.961476,1445.28501 390.535719,1441.53917 393.176637,1437.19357 L393.512325,1436.6472 C396.575543,1431.72239 401.165728,1428.83947 406.911275,1431.25297 Z M490.669094,1420.78683 L490.669094,1426.98525 C490.669094,1426.98525 492.523516,1425.49594 494.486793,1423.91902 L494.97887,1423.52377 C497.030221,1421.87608 499.041847,1420.26007 499.040766,1420.26007 C499.658385,1419.79943 499.900285,1420.09551 500.006163,1420.23069 C500.118658,1420.36734 500.375263,1420.68765 499.77088,1421.1696 L492.048442,1427.36728 C492.048442,1427.36728 499.592211,1432.99706 499.587065,1432.99412 C499.993663,1433.29533 499.861317,1433.52676 499.793673,1433.61785 C499.720882,1433.70822 499.540008,1433.89556 499.134144,1433.59655 L490.669094,1427.37756 L490.669094,1439.22486 C490.669094,1439.96114 490.302038,1440.00716 490.108332,1440.01003 L490.072062,1440.01022 C489.894129,1440.01022 489.481648,1440.01022 489.481648,1439.22486 L489.481648,1420.78683 C489.481648,1420.04918 489.84418,1420.00307 490.036109,1420.00019 L490.072062,1420 C490.251466,1420 490.669094,1420 490.669094,1420.78683 Z M438.873688,1420.00015 C444.88297,1420.00015 447.618873,1424.81885 447.618873,1429.28124 C447.618873,1433.74951 444.88297,1438.56013 438.873688,1438.56013 C432.866613,1438.56013 430.130709,1433.74951 430.130709,1429.28124 C430.130709,1424.81885 432.866613,1420.00015 438.873688,1420.00015 Z M453.629405,1420.78676 L453.629405,1432.84638 L455.579315,1432.84638 C455.870478,1432.84638 456.021206,1432.9676 456.021206,1433.2049 C456.021206,1433.44293 455.870478,1433.56268 455.579315,1433.56268 L453.629405,1433.56268 L453.629405,1437.15228 C453.629405,1437.92162 453.261703,1437.9697 453.074581,1437.97271 L453.039726,1437.97291 C452.860323,1437.97291 452.445636,1437.97291 452.445636,1437.15228 L452.445636,1433.56268 L450.492785,1433.56268 C450.200151,1433.56268 450.052364,1433.44293 450.052364,1433.2049 C450.052364,1432.9676 450.200151,1432.84638 450.492785,1432.84638 L452.445636,1432.84638 L452.445636,1420.78676 C452.445636,1420.04979 452.810107,1420.00373 453.00349,1420.00085 L453.039726,1420.00066 C453.211042,1420.00066 453.629405,1420.00066 453.629405,1420.78676 Z M438.873688,1420.87734 C433.432763,1420.87734 431.499764,1425.40879 431.499764,1429.28124 C431.499764,1433.15736 433.432763,1437.6844 438.873688,1437.6844 C444.317555,1437.6844 446.248348,1433.15736 446.248348,1429.28124 C446.248348,1425.40879 444.317555,1420.87734 438.873688,1420.87734 Z M463.941209,1420.00015 C467.230028,1420.00015 469.438749,1421.48271 469.438749,1423.68966 C469.438749,1425.56748 468.058666,1426.49757 465.680099,1427.33951 C465.24556,1427.49232 462.703766,1428.39155 462.347165,1428.51571 C461.213393,1428.90509 460.473722,1429.60743 460.473722,1430.54634 C460.473722,1432.15968 462.381722,1433.00676 464.218402,1433.00676 C466.325658,1433.00676 467.100622,1432.36686 468.157926,1431.81292 C468.759369,1431.49407 469.295374,1432.25445 468.633639,1432.6262 C467.239586,1433.42478 465.630837,1433.72233 464.133847,1433.72233 C461.73984,1433.72233 459.152459,1432.45428 459.152459,1430.41043 C459.152459,1429.05643 459.887719,1428.08814 461.686166,1427.43869 C462.53245,1427.1338 464.728672,1426.34476 465.483049,1426.07147 C465.533018,1426.05345 465.583194,1426.03544 465.633482,1426.01735 L465.935778,1425.90742 C467.043437,1425.49702 468.111605,1424.98333 468.111605,1423.60885 C468.111605,1421.96319 466.332275,1420.71645 464.034587,1420.71645 C461.26045,1420.71645 459.803164,1422.21224 459.242161,1422.76545 C458.71645,1423.28559 457.948838,1422.62733 458.570868,1422.00727 C459.350244,1421.22631 461.175895,1420.00015 463.941209,1420.00015 Z M479.252708,1420.00015 C482.695197,1420.00015 484.928182,1421.73397 484.928182,1424.42213 L484.928182,1432.9377 C484.928182,1433.67329 484.56565,1433.71926 484.374933,1433.72213 L484.339238,1433.72233 C484.156894,1433.72233 483.739266,1433.72233 483.739266,1432.9377 L483.739266,1424.89158 C483.739266,1423.79546 483.651035,1422.89181 483.159146,1422.20783 C482.459178,1421.24615 481.098211,1420.71645 479.252708,1420.71645 C477.431469,1420.71645 476.097707,1421.25129 475.388916,1422.23134 C474.895556,1422.91165 474.75071,1423.81015 474.75071,1424.89158 L474.75071,1432.9377 C474.75071,1433.67329 474.38947,1433.71926 474.194674,1433.72213 L474.15809,1433.72233 C473.979422,1433.72233 473.566206,1433.72233 473.566206,1432.9377 L473.566206,1424.42213 C473.566206,1421.73397 475.797721,1420.00015 479.252708,1420.00015 Z M514.857119,1420.78698 L514.857119,1432.9377 C514.860772,1433.68559 514.437997,1433.72233 514.261535,1433.72233 C514.084337,1433.72233 513.668915,1433.69441 513.668915,1432.9377 L513.667445,1430.12979 C513.032915,1431.94442 511.316082,1433.72233 508.502242,1433.72233 C504.073769,1433.72233 502.056951,1430.16725 502.056951,1426.86785 C502.056951,1423.54273 503.764225,1420.00015 508.563268,1420.00015 C511.516808,1420.00015 513.058649,1421.84123 513.68362,1423.5824 L513.68362,1420.78698 C513.68362,1420.04932 514.035813,1420.00322 514.225843,1420.00034 L514.261535,1420.00015 C514.437997,1420.00015 514.857119,1420.00015 514.857119,1420.78698 Z M508.563268,1420.71645 C504.76859,1420.71645 503.325274,1424.02835 503.325274,1426.86785 C503.325274,1429.91967 505.015638,1433.00676 508.563268,1433.00676 C512.329271,1433.00676 513.668915,1429.69706 513.668915,1426.86785 C513.668915,1424.02835 512.329271,1420.71645 508.563268,1420.71645 Z M406.714619,1420.09411 L406.940529,1420.09573 C408.075036,1420.11409 408.936025,1420.85391 409.552173,1422.06611 C409.972007,1422.89041 410.197732,1423.62509 410.294051,1424.5133 C410.413163,1425.59768 410.181556,1426.29561 409.484529,1426.98841 C409.008816,1427.45345 407.102286,1428.52754 405.735438,1428.88459 C404.168598,1429.30189 403.228936,1428.94704 402.525291,1427.90381 C401.911349,1426.99575 401.4474,1425.93342 401.031243,1424.51991 C400.573176,1422.96829 400.739344,1421.53568 402.085606,1420.93472 C403.437014,1420.33743 405.810434,1420.06854 406.940529,1420.09573 Z" id="Combined-Shape-Copy-4" transform="translate(451.428571, 1444.000000) scale(1, -1) translate(-451.428571, -1444.000000) "></path>
            </g>
        </g>
    </g>
</svg>