<?xml version="1.0" encoding="UTF-8"?>
<svg width="163px" height="20px" viewBox="0 0 163 20" version="1.1" xmlns="http://www.w3.org/2000/svg" xmlns:xlink="http://www.w3.org/1999/xlink">
    <title>Combined Shape Copy 5</title>
    <g id="Home" stroke="none" stroke-width="1" fill="none" fill-rule="evenodd">
        <g transform="translate(-100.000000, -1434.000000)" fill="#FFFFFF" fill-rule="nonzero" id="1-copy-5">
            <g>
                <path d="M148.468442,1434.9188 C150.681407,1434.9188 152.461966,1436.3783 150.897112,1439.7288 L150.897112,1439.7288 L149.385684,1442.9723 C148.09046,1445.7823 146.849162,1448.4313 145.93192,1450.2678 C144.636196,1453.0788 142.909065,1454.0518 139.508228,1453.9978 L139.508228,1453.9978 L135.964371,1453.99703 C134.263675,1453.96811 131.0202,1453.10241 133.247812,1448.3763 L133.247812,1448.3763 L135.56813,1443.6203 C136.593724,1441.3503 137.565392,1439.4048 138.104652,1438.2153 C139.130246,1435.9998 140.749526,1434.9188 143.016917,1434.9188 L143.016917,1434.9188 Z M180.42073,1435.0271 C181.284046,1435.0271 182.363566,1435.3516 182.957252,1436.2701 C183.334734,1436.8646 183.604864,1437.9456 182.741048,1439.7291 C182.741048,1439.7831 181.824305,1441.6746 181.284046,1442.8096 C180.582508,1444.2691 179.34121,1445.0801 177.614078,1445.2421 C178.315616,1445.6741 179.394637,1446.5391 178.531321,1448.7011 C178.531321,1448.7011 177.451801,1451.3491 177.128244,1452.1601 C176.750263,1453.0791 176.588485,1453.9981 176.588485,1453.9981 L176.588485,1453.9981 L172.054701,1453.9981 C172.054701,1453.9981 172.918517,1451.5651 173.997537,1449.2421 C174.429445,1448.3226 174.483371,1447.5661 174.213741,1447.0796 C173.889685,1446.5931 173.188147,1446.5391 173.188147,1446.5391 L173.188147,1446.5391 L170.813403,1446.5391 L167.413066,1453.9436 L162.933208,1453.9436 L171.838997,1435.0271 Z M132.708302,1435.0271 C133.571118,1435.0271 134.651138,1435.3516 135.244824,1436.2701 C135.622306,1436.8646 135.892436,1437.9456 135.02862,1439.7291 C135.02862,1439.7831 134.111378,1441.6746 133.571118,1442.8096 C132.86958,1444.2691 131.628782,1445.0801 129.90165,1445.2421 C130.603188,1445.6741 131.682208,1446.5391 130.818892,1448.7011 C130.818892,1448.7011 129.739372,1451.3491 129.415317,1452.1601 C129.037335,1453.0791 128.876056,1453.9981 128.876056,1453.9981 L128.876056,1453.9981 L124.341773,1453.9981 C124.341773,1453.9981 125.205589,1451.5651 126.285109,1449.2421 C126.717017,1448.3226 126.770943,1447.5661 126.500813,1447.0796 C126.177257,1446.5931 125.475719,1446.5391 125.475719,1446.5391 L125.475719,1446.5391 L123.100975,1446.5391 L119.700637,1453.9436 L115.22078,1453.9436 L124.126069,1435.0271 Z M164.012578,1434.91885 C166.981008,1434.97235 168.222805,1436.37835 166.819729,1439.45885 L166.819729,1439.45885 L165.847562,1441.51285 L161.583908,1441.51285 C161.583908,1441.51285 162.555576,1439.40535 162.662929,1439.18885 C163.04091,1438.43135 162.717354,1438.16185 162.123169,1438.16185 L162.123169,1438.16185 L159.694499,1438.16185 C158.992961,1438.16185 158.723331,1438.32385 158.237497,1439.29635 C158.237497,1439.29635 154.02727,1448.10635 153.488009,1449.24185 C153.056101,1450.10635 153.325232,1450.48485 154.02727,1450.48485 L154.02727,1450.48485 L156.348087,1450.48485 C157.265829,1450.48485 157.535959,1450.32235 157.91394,1449.45735 L157.91394,1449.45735 L159.208665,1446.59335 L156.887847,1446.59335 L158.345349,1443.45835 L165.092098,1443.45835 L161.799612,1450.75485 C160.503889,1453.56535 159.101312,1453.99735 156.240235,1453.99735 L156.240235,1453.99735 L152.67812,1453.99735 C148.683597,1453.99735 147.874207,1451.45735 149.331708,1448.37685 C149.331708,1448.37685 150.527348,1445.86867 151.742869,1443.30494 L151.994253,1442.77452 C152.91421,1440.83266 153.798941,1438.95617 154.135122,1438.21585 C155.106789,1436.10835 157.050125,1434.91885 159.424869,1434.91885 L159.424869,1434.91885 Z M117.37917,1435.027 C119.322506,1435.027 121.157989,1436.5405 119.646561,1439.8375 C118.782746,1441.6745 118.081208,1443.2965 117.703226,1444.0525 C116.515854,1446.485 115.004926,1447.3495 112.143849,1447.3495 L112.143849,1447.3495 L107.718417,1447.3495 L104.641636,1453.998 L100,1453.998 L108.851363,1435.027 Z M227.269393,1434.97325 L218.309678,1453.94375 L213.721968,1453.94375 L222.627757,1434.97325 L227.269393,1434.97325 Z M233.530058,1434.97305 L228.240811,1451.67305 L238.658027,1434.97305 L243.515367,1434.97305 L230.508202,1453.94305 L224.300713,1453.94305 L228.726644,1434.97305 L233.530058,1434.97305 Z M209.080133,1434.973 L207.515279,1438.324 L204.384571,1438.324 C202.873643,1438.324 202.657939,1439.513 202.711366,1440.324 L202.711366,1440.324 L203.089347,1447.3495 C203.305052,1451.511 201.146511,1453.9435 197.368192,1453.9435 L197.368192,1453.9435 L191.754889,1453.9435 L193.320242,1450.485 L196.882858,1450.485 C198.231508,1450.485 198.771268,1449.836 198.717841,1448.377 C198.717841,1448.377 198.447712,1442.3775 198.33986,1440.54 C198.178082,1437.513 199.635084,1434.973 203.790886,1434.973 L203.790886,1434.973 L209.080133,1434.973 Z M219.659128,1434.973 L218.093774,1438.324 L214.963566,1438.324 C213.451639,1438.324 213.235935,1439.513 213.29036,1440.324 L213.29036,1440.324 L213.668342,1447.3495 C213.884046,1450.971 212.049062,1453.9435 207.946687,1453.9435 L207.946687,1453.9435 L202.387809,1453.9435 L204.00659,1450.485 L207.460853,1450.485 C208.810503,1450.485 209.350263,1449.836 209.296337,1448.377 C209.296337,1448.377 209.026706,1442.3775 208.918355,1440.54 C208.702651,1436.864 210.915117,1434.973 214.36988,1434.973 L214.36988,1434.973 L219.659128,1434.973 Z M198.123806,1434.97305 L196.558452,1438.32405 L190.621593,1438.32405 L188.78611,1442.26955 L194.56169,1442.26955 L193.050263,1445.45805 L187.329107,1445.45805 L184.900437,1450.48405 L191.700613,1450.48405 L190.081334,1453.94305 L178.909652,1453.94305 L187.761015,1434.97305 L198.123806,1434.97305 Z M255.389735,1434.97305 C255.389735,1434.97305 253.878307,1438.32405 253.824381,1438.32405 L253.824381,1438.32405 L247.887522,1438.32405 L246.052538,1442.26955 L251.827619,1442.26955 L250.316192,1445.45805 L244.594537,1445.45805 L242.166366,1450.48405 L248.967042,1450.48405 L247.347262,1453.94305 L236.175081,1453.94305 L245.026944,1434.97305 Z M146.47118,1439.1888 C146.849162,1438.3778 146.417254,1438.1078 145.93192,1438.1613 L145.93192,1438.1613 L143.502751,1438.1613 C142.909065,1438.1613 142.423231,1438.3243 141.991323,1439.2968 C141.676526,1439.97947 140.763435,1441.9499 139.820948,1443.98807 L139.488011,1444.70825 C138.601866,1446.62562 137.748968,1448.47586 137.403613,1449.2418 C136.863854,1450.3763 137.565392,1450.4843 137.888948,1450.4843 L137.888948,1450.4843 L139.886209,1450.4843 C140.858376,1450.4843 141.289785,1450.2678 141.937397,1448.9173 L141.937397,1448.9173 Z M114.842648,1438.108 L111.928145,1438.108 L109.229844,1444.0525 L112.089923,1444.0525 C112.899313,1444.0525 113.439572,1443.6745 113.817055,1442.864 L113.817055,1442.864 L113.844414,1442.8092 C113.985252,1442.52625 114.589018,1441.30337 115.328482,1439.6745 C115.922168,1438.4315 115.436334,1438.108 114.842648,1438.108 L114.842648,1438.108 Z M178.099912,1438.1616 L174.699075,1438.1616 L172.324331,1443.3506 L175.455039,1443.3506 C176.210503,1443.3506 176.804189,1442.9181 177.18217,1442.1616 L177.18217,1442.1616 L177.614078,1441.1341 L178.423468,1439.5131 C178.639672,1439.0261 178.693598,1438.6481 178.531321,1438.4321 C178.423468,1438.2156 178.099912,1438.1616 178.099912,1438.1616 L178.099912,1438.1616 Z M130.387484,1438.1616 L127.040573,1438.1616 L124.611903,1443.3506 L127.742111,1443.3506 C128.498074,1443.3506 129.09176,1442.9181 129.469742,1442.1616 L129.469742,1442.1616 L129.90165,1441.1341 L130.71104,1439.5131 C130.926744,1439.0261 130.98067,1438.6481 130.818892,1438.4321 C130.71104,1438.2156 130.387484,1438.1616 130.387484,1438.1616 L130.387484,1438.1616 Z M260.624757,1434 C261.92098,1434 263,1435.0265 263,1436.3245 C263,1437.6215 261.92098,1438.702 260.624757,1438.702 C259.330032,1438.702 258.303939,1437.6215 258.303939,1436.3245 C258.303939,1435.0265 259.330032,1434 260.624757,1434 Z M260.624757,1434.2705 C259.49181,1434.2705 258.574069,1435.1895 258.574069,1436.3245 C258.574069,1437.513 259.49181,1438.4315 260.624757,1438.4315 C261.758702,1438.4315 262.72987,1437.513 262.72987,1436.3245 C262.72987,1435.1895 261.758702,1434.2705 260.624757,1434.2705 Z M260.894886,1435.0265 C261.11109,1435.0265 261.38072,1435.0265 261.542998,1435.135 C261.758702,1435.243 261.866554,1435.5135 261.866554,1435.73 C261.866554,1436.2155 261.488572,1436.432 261.002739,1436.432 L261.812628,1437.6755 L261.434646,1437.6755 L260.679182,1436.432 L260.084997,1436.432 L260.084997,1437.6755 L259.761441,1437.6755 L259.761441,1435.0265 L260.894886,1435.0265 Z M260.84096,1435.243 L260.084997,1435.243 L260.084997,1436.162 L260.57133,1436.162 C260.949312,1436.162 261.542998,1436.27 261.542998,1435.73 C261.542998,1435.2975 261.165016,1435.243 260.84096,1435.243 Z" id="Combined-Shape-Copy-5"></path>
            </g>
        </g>
    </g>
</svg>