<?xml version="1.0" encoding="UTF-8"?>
<svg width="152px" height="40px" viewBox="0 0 152 40" version="1.1" xmlns="http://www.w3.org/2000/svg" xmlns:xlink="http://www.w3.org/1999/xlink">
    <title>Combined Shape Copy 2</title>
    <g id="Home" stroke="none" stroke-width="1" fill="none" fill-rule="evenodd">
        <g transform="translate(-904.000000, -1424.000000)" fill="#FFFFFF" id="1-copy-5">
            <path d="M922.790738,1424.51135 L933.151985,1430.77817 L928.380762,1433.64926 L921.00003,1429.20476 L917.546281,1431.30256 L911.304,1435.09132 L914.591444,1437.07106 L921.00003,1440.97813 L934.098454,1433.08552 C934.840463,1432.65288 935.851006,1432.70527 936.592775,1433.09856 C937.398618,1433.5312 938,1434.38345 938,1435.43247 L938,1452.22687 C938,1453.53784 937.360221,1454.67836 936.260167,1455.34712 L922.790738,1463.48865 C921.665246,1464.17045 920.347533,1464.17045 919.209082,1463.48865 L905.739653,1455.34712 C904.639599,1454.67836 904.012779,1453.55088 904.012779,1452.22687 L904.012779,1439.3393 L908.860794,1442.24975 L908.860794,1451.42701 L921.00003,1458.76892 L933.151985,1451.42701 L933.151985,1439.36537 L922.790738,1445.60612 C921.652287,1446.28767 920.347533,1446.28767 919.209082,1445.60612 L905.112833,1437.09738 C903.629056,1436.19273 903.629056,1433.92449 905.112833,1433.03313 L919.209082,1424.51135 C920.347533,1423.82955 921.652287,1423.82955 922.790738,1424.51135 Z M1000.29886,1440.04774 C1004.13368,1440.04774 1006.93665,1442.69681 1006.93665,1447.45214 C1006.93665,1451.96212 1004.35023,1454.83084 1000.29886,1454.83084 C998.247605,1454.83084 996.527627,1453.99105 995.801488,1452.72458 L995.801488,1452.72458 L995.801488,1460 L992.030252,1460 L992.030252,1440.31902 L995.559362,1440.31902 L995.775913,1442.25728 C996.476716,1441.02984 998.145783,1440.04774 1000.29886,1440.04774 Z M1044.89041,1434 L1044.89041,1442.154 C1045.61655,1440.88753 1047.28562,1440.04774 1049.36221,1440.04774 C1053.38824,1440.04774 1056,1442.89051 1056,1447.42644 C1056,1452.15607 1053.2226,1454.80514 1049.36221,1454.80514 C1047.23471,1454.80514 1045.54007,1453.84874 1044.8395,1452.6213 L1044.8395,1452.6213 L1044.62295,1454.53386 L1041.09384,1454.53386 L1041.09384,1434 L1044.89041,1434 Z M1032.30274,1440.0218 C1036.58356,1440.0218 1039.62866,1443.01973 1039.62866,1447.42644 C1039.62866,1451.85885 1036.58356,1454.80514 1032.30274,1454.80514 C1028.00925,1454.80514 1024.96439,1451.85885 1024.96439,1447.42644 C1024.96439,1443.01973 1028.00925,1440.0218 1032.30274,1440.0218 Z M961.797265,1434.56851 C965.593837,1434.56851 969.263012,1436.20978 969.263012,1440.56461 L969.263012,1440.56461 L965.46644,1440.56461 C965.46644,1438.58732 963.873859,1437.77323 961.746354,1437.77323 C959.695097,1437.77323 958.395552,1438.70369 958.395552,1440.12508 C958.395552,1441.4044 959.185509,1442.11521 961.262103,1442.5288 L961.262103,1442.5288 L964.332536,1443.1104 C967.912557,1443.82097 969.581624,1445.75947 969.581624,1448.84783 C969.581624,1452.647 966.243729,1454.7792 961.962905,1454.7792 C957.019522,1454.7792 954,1452.37572 954,1448.74455 L954,1448.74455 L957.911301,1448.74455 C957.911301,1450.34679 959.23642,1451.49689 961.962905,1451.49689 C964.115985,1451.49689 965.568501,1450.5148 965.568501,1448.9511 C965.568501,1447.59445 964.765638,1446.93527 962.880259,1446.57356 L962.880259,1446.57356 L959.822494,1445.97911 C956.356963,1445.31994 954.433341,1443.43332 954.433341,1440.47418 C954.433341,1437.14 957.159587,1434.56851 961.797265,1434.56851 Z M1016.98882,1434.85288 C1021.26964,1434.85288 1023.53745,1436.86871 1023.53745,1440.15102 C1023.53745,1441.71471 1022.96404,1443.5366 1021.05309,1444.33784 C1023.10435,1445.04865 1024.1871,1446.90957 1024.1871,1449.01583 C1024.1871,1452.47899 1021.62649,1454.53386 1017.54931,1454.53386 L1017.54931,1454.53386 L1008.75845,1454.53386 L1008.75845,1434.85288 Z M990.081055,1440.31902 L990.081055,1454.53386 L986.30982,1454.53386 L986.30982,1440.31902 L990.081055,1440.31902 Z M974.652404,1434 L974.652404,1441.90842 C975.416785,1440.78425 976.818151,1440.04774 978.805591,1440.04774 C981.430255,1440.04774 984.526263,1441.44319 984.526263,1446.49598 L984.526263,1446.49598 L984.526263,1454.53386 L980.755027,1454.53386 L980.755027,1447.06449 C980.755027,1444.661 979.646698,1443.45926 977.76108,1443.5109 C975.760733,1443.5366 974.652404,1444.88065 974.652404,1446.96121 L974.652404,1446.96121 L974.652404,1454.53386 L970.881168,1454.53386 L970.881168,1434 L974.652404,1434 Z M1032.30274,1443.26532 C1030.20057,1443.26532 1028.82478,1444.85471 1028.82478,1447.4005 C1028.82478,1449.92035 1030.20057,1451.54853 1032.30274,1451.54853 C1034.40515,1451.54853 1035.78094,1449.92035 1035.78094,1447.4005 C1035.78094,1444.85471 1034.40515,1443.26532 1032.30274,1443.26532 Z M999.470663,1443.45926 C997.419405,1443.45926 995.877974,1444.99702 995.877974,1447.47808 C995.877974,1449.94629 997.419405,1451.41932 999.470663,1451.41932 C1001.5475,1451.41932 1003.05068,1449.94629 1003.05068,1447.45214 C1003.05068,1444.99702 1001.5475,1443.48496 999.470663,1443.45926 Z M1048.53425,1443.45926 C1046.483,1443.44617 1044.94133,1444.97108 1044.94133,1447.42644 C1044.94133,1449.92035 1046.483,1451.39362 1048.53425,1451.39362 C1050.61085,1451.39362 1052.11427,1449.88156 1052.11427,1447.42644 C1052.11427,1444.97108 1050.61085,1443.47211 1048.53425,1443.45926 Z M1017.28185,1446.19876 L1012.61884,1446.19876 L1012.61884,1451.17397 L1017.20537,1451.17397 C1019.06541,1451.17397 1020.13573,1450.32109 1020.13573,1448.74455 C1020.13573,1447.12922 1019.02741,1446.19876 1017.28185,1446.19876 L1017.28185,1446.19876 Z M1016.70845,1438.21276 L1012.61884,1438.21276 L1012.61884,1443.1104 L1016.84875,1443.1104 C1018.68322,1443.1104 1019.60057,1442.01194 1019.60057,1440.61625 C1019.60057,1439.2465 1018.70879,1438.21276 1016.70845,1438.21276 L1016.70845,1438.21276 Z M990.081055,1434.43929 L990.081055,1438.13518 L986.258909,1438.13518 L986.258909,1434.43929 L990.081055,1434.43929 Z" id="Combined-Shape-Copy-2"></path>
        </g>
    </g>
</svg>