<?xml version="1.0" encoding="UTF-8"?>
<svg width="146px" height="24px" viewBox="0 0 146 24" version="1.1" xmlns="http://www.w3.org/2000/svg" xmlns:xlink="http://www.w3.org/1999/xlink">
    <title>Combined Shape Copy</title>
    <g id="Home" stroke="none" stroke-width="1" fill="none" fill-rule="evenodd">
        <g transform="translate(-1194.000000, -1432.000000)" fill="#FFFFFF" fill-rule="nonzero" id="1-copy-5">
            <g>
                <path d="M1214.53073,1438.73876 C1219.70478,1438.73876 1222.4577,1442.42337 1222.4577,1446.67227 C1222.4577,1447.10383 1222.42457,1447.63499 1222.39143,1447.93367 L1209.62188,1447.93367 C1209.88719,1451.08714 1211.9436,1453.24483 1214.86231,1453.24483 C1217.31679,1453.24483 1218.90875,1452.18262 1219.37309,1450.29056 L1222.59036,1450.29056 C1221.99336,1453.74271 1218.97513,1456 1214.86231,1456 C1209.68826,1456 1206.471,1451.91709 1206.471,1447.26975 C1206.471,1442.58934 1209.38971,1438.73876 1214.53073,1438.73876 Z M1231.67841,1438.73876 C1235.99026,1438.73876 1238.8427,1441.22835 1238.8427,1444.94614 L1238.8427,1455.73448 L1235.62543,1455.73448 L1235.62543,1453.01246 C1234.8294,1454.80503 1232.70661,1456 1230.18597,1456 C1226.76967,1456 1224.51422,1453.94191 1224.51422,1450.95437 C1224.51422,1447.73448 1227.06822,1445.74282 1231.01514,1445.74282 L1234.49771,1445.74282 C1235.26061,1445.74282 1235.62543,1445.34453 1235.62543,1444.74705 C1235.62543,1442.72212 1234.16602,1441.32794 1231.579,1441.32794 C1229.25728,1441.32794 1227.5657,1442.7885 1227.46618,1444.48141 L1224.48109,1444.48141 C1224.74639,1441.19516 1227.73149,1438.73876 1231.67841,1438.73876 Z M1249.38973,1438.73876 C1253.30351,1438.73876 1256.68667,1441.06238 1257.15102,1444.84654 L1253.93375,1444.84654 C1253.6352,1442.95448 1251.71144,1441.5603 1249.45611,1441.5603 C1246.10619,1441.5603 1244.44948,1444.14945 1244.44948,1447.36935 C1244.44948,1450.58925 1246.14096,1453.1785 1249.45611,1453.1785 C1251.74469,1453.1785 1253.43616,1451.98342 1253.96689,1450.09136 L1257.15102,1450.09136 C1256.62029,1453.60995 1253.6352,1456 1249.38973,1456 C1244.11616,1456 1241.09782,1451.98342 1241.09782,1447.36935 C1241.09782,1442.75532 1244.11616,1438.73876 1249.38973,1438.73876 Z M1289.65505,1438.73876 C1293.96527,1438.73876 1296.81934,1441.22835 1296.81934,1444.94614 L1296.81934,1455.73448 L1293.60208,1455.73448 L1293.60208,1453.01246 C1292.80604,1454.80503 1290.68325,1456 1288.16261,1456 C1284.74631,1456 1282.49086,1453.94191 1282.49086,1450.95437 C1282.49086,1447.73448 1285.04486,1445.74282 1288.99178,1445.74282 L1292.47435,1445.74282 C1293.23725,1445.74282 1293.60208,1445.34453 1293.60208,1444.74705 C1293.60208,1442.72212 1292.14266,1441.32794 1289.55564,1441.32794 C1287.23392,1441.32794 1285.54234,1442.7885 1285.44282,1444.48141 L1282.45773,1444.48141 C1282.72314,1441.19516 1285.70813,1438.73876 1289.65505,1438.73876 Z M1331.94266,1438.73876 C1337.11475,1438.73876 1339.86811,1442.42337 1339.86811,1446.67227 C1339.86811,1447.10383 1339.83432,1447.63499 1339.80162,1447.93367 L1327.03218,1447.93367 C1327.29705,1451.08714 1329.35389,1453.24483 1332.27184,1453.24483 C1334.72545,1453.24483 1336.31686,1452.18262 1336.78121,1450.29056 L1340,1450.29056 C1339.40377,1453.74271 1336.38553,1456 1332.27402,1456 C1327.09976,1456 1323.88206,1451.91709 1323.88206,1447.26975 C1323.88206,1442.58934 1326.8011,1438.73876 1331.94266,1438.73876 Z M1302.92055,1432 L1302.92055,1441.4605 C1303.88259,1439.83395 1305.90565,1438.73853 1308.19466,1438.73853 C1313.30244,1438.73853 1316.18769,1442.38994 1316.18769,1447.36913 C1316.18769,1452.34832 1313.30244,1455.99978 1308.16087,1455.99978 C1305.94053,1455.99978 1303.88259,1454.9043 1302.92055,1453.24461 L1302.92055,1455.73426 L1299.70339,1455.73426 L1299.70339,1432 L1302.92055,1432 Z M1200.63351,1432 L1200.63351,1439.00409 L1205.57545,1439.00409 L1205.57545,1441.79243 L1200.63351,1441.79243 L1200.63351,1450.15747 C1200.63351,1451.95004 1201.59537,1452.94581 1203.22058,1452.94581 L1205.57545,1452.94581 L1205.57545,1455.73426 L1202.95524,1455.73426 C1199.57215,1455.73426 1197.41626,1453.67617 1197.41626,1450.25707 L1197.41626,1441.79243 L1194,1441.79243 L1194,1439.00409 L1197.41626,1439.00409 L1197.41626,1432 L1200.63351,1432 Z M1262.42317,1432 L1262.42317,1441.95841 C1263.32035,1439.86715 1265.31038,1438.73853 1267.79799,1438.73853 C1271.57912,1438.73853 1274.03349,1441.4605 1274.03349,1445.44381 L1274.03349,1455.73426 L1270.81623,1455.73426 L1270.81623,1446.07456 C1270.81623,1443.41899 1269.25741,1441.62647 1266.90244,1441.62647 C1264.28228,1441.62647 1262.4248,1443.75095 1262.4248,1446.67205 L1262.4248,1455.73426 L1259.20764,1455.73426 L1259.2059,1432 L1262.42317,1432 Z M1321.59522,1432 L1321.59522,1455.73426 L1318.37861,1455.73426 L1318.37861,1432 L1321.59522,1432 Z M1276.45287,1452.14891 L1280.00183,1452.1572 L1280.00183,1455.73393 L1276.45287,1455.73393 L1276.45287,1452.14891 Z M1235.62543,1448.00011 L1231.31358,1448.00011 C1229.12452,1448.00011 1227.69835,1449.12864 1227.69835,1450.88805 C1227.69835,1452.41498 1228.95873,1453.44402 1230.8161,1453.44402 C1233.86747,1453.44402 1235.62543,1451.48553 1235.62543,1448.3984 L1235.62543,1448.00011 Z M1293.60208,1448.00011 L1289.29022,1448.00011 C1287.10116,1448.00011 1285.67499,1449.12864 1285.67499,1450.88805 C1285.67499,1452.41498 1286.93537,1453.44402 1288.79274,1453.44402 C1291.84411,1453.44402 1293.60044,1451.48553 1293.60044,1448.3984 L1293.60208,1448.3984 L1293.60208,1448.00011 Z M1307.79572,1441.56007 C1304.6783,1441.56007 1302.65524,1443.88371 1302.65524,1447.36913 C1302.65524,1450.85456 1304.6783,1453.17817 1307.79572,1453.17817 C1310.88044,1453.17817 1312.93729,1450.85456 1312.93729,1447.36913 C1312.93729,1443.88371 1310.88044,1441.56007 1307.79572,1441.56007 Z M1214.53073,1441.32794 C1211.91046,1441.32794 1210.21888,1442.7885 1209.7214,1445.57689 L1219.2073,1445.57689 C1219.00827,1443.02092 1217.28355,1441.32794 1214.53073,1441.32794 Z M1331.94593,1441.32794 C1329.32337,1441.32794 1327.63059,1442.7885 1327.13246,1445.57689 L1336.62098,1445.57689 C1336.42368,1443.02092 1334.69711,1441.32794 1331.94593,1441.32794 Z M1280.00183,1440.87102 L1280.00183,1444.48927 L1276.45287,1444.48927 L1276.45287,1440.87102 L1280.00183,1440.87102 Z" id="Combined-Shape-Copy"></path>
            </g>
        </g>
    </g>
</svg>